<?xml version="1.0" encoding="utf-8"?>
<!-- Generator: Adobe Illustrator 24.0.1, SVG Export Plug-In . SVG Version: 6.00 Build 0)  -->
<svg version="1.1" baseProfile="tiny" id="Layer_1" xmlns="http://www.w3.org/2000/svg" xmlns:xlink="http://www.w3.org/1999/xlink"
	 x="0px" y="0px" width="92.2px" height="78.6px" viewBox="0 0 92.2 78.6" xml:space="preserve">
<path fill="#FFFFFF" d="M87.4,49.4H4.5c-1.7,0-3.2-1.5-3.2-3.3V32.8c0-1.8,1.5-3.3,3.2-3.3h82.9c1.7,0,3.2,1.5,3.2,3.3v13.4
	C90.7,47.9,89.2,49.4,87.4,49.4z"/>
<title>logo-univerzal-djakovo</title>
<g id="Layer_2_1_">
	<g id="Layer_1-2">
		<path fill="#595959" d="M79,5.2v20.2c0,0.4,0.1,0.9-0.6,0.9H58.1c0.3-0.6,0.8-1.1,1.3-1.5c1-1.1,2.1-2.1,3.1-3.1
			c0.5-0.5,0.5-0.8,0-1.2c-8.8-7.7-22.1-6.8-29.8,1.9C31.2,24.1,30,26,29.2,28c-0.2,0.3-0.3,0.7-0.3,1.1c0.4,0.2,0.9,0.2,1.4,0.1
			h55.3c1.1-0.1,2.2,0,3.3,0.1c1.9,0.2,3.3,1.8,3.3,3.7c0,1.8,0,3.5,0,5.3c0,0.5-0.2,0.7-0.7,0.7c-2.2,0.1-2.2,0.1-2.2-2.1
			c0-1.2,0-2.4,0-3.6c0-0.9-0.3-1.2-1.2-1.3c-0.3,0-0.6,0-1,0H5c-0.3,0-0.6,0-0.8,0c-1,0.1-1.3,0.3-1.3,1.3c0,1.6,0,3.2,0,4.8
			c0,0.6-0.1,0.8-0.8,0.8C0,39,0,39,0,37c0-1.4,0-2.7,0-4.1c0-1.8,1.3-3.4,3.2-3.6c1.7-0.2,3.3-0.2,5-0.1c1.4,0,2.7,0,4.1,0
			c0.6,0,0.8-0.2,1-0.8c1.2-5.4,3.6-10.5,7.1-14.8C25.5,6.9,33,2.3,41.4,0.8c11.6-2.3,22,0.6,31,8.2c0,0,0.1,0,0.1,0.1
			c0.4,0.3,0.8,1,1.3,1s1-0.8,1.4-1.2C76.4,7.7,77.6,6.6,79,5.2z"/>
		<path fill="#595959" d="M34.2,52.5L29,57.7c5.4,4.9,11.6,6.8,18.7,5.4c7.6-1.5,12.7-6.1,15.7-13.2c-0.3-0.2-0.7-0.3-1.1-0.2H5.4
			c-0.8,0-1.6,0-2.4-0.2c-1.8-0.3-3-1.9-3-3.6c0-1.8,0-3.5,0-5.3c0-0.6,0.2-0.7,0.7-0.8c2.1-0.1,2.1-0.1,2.1,1.9c0,1.2,0,2.5,0,3.7
			c0,1,0.3,1.3,1.3,1.3c0.3,0,0.6,0,0.8,0h82.9c1.2,0,1.4-0.3,1.4-1.5c0-1.5,0-3,0-4.6c0-0.6,0.1-0.9,0.8-0.9c2,0,2,0,2,2
			c0,1.2,0,2.5,0,3.7c0.1,2.1-1.4,3.8-3.5,4c-1.1,0.1-2.2,0.2-3.2,0.1c-1.8,0-3.6,0-5.4,0c-0.9,0-1.2,0.4-1.3,1.1
			c-0.8,3.6-2.2,7.1-4.2,10.3c-5.7,9.2-13.9,15-24.5,17S29.6,77.3,21,70.7c-0.8-0.6-1.6-1.3-2.3-1.9c-0.4-0.4-0.7-0.4-1.2,0
			c-1.3,1.3-2.7,2.6-4,4c-0.1,0.1-0.2,0.2-0.4,0.3c-0.3-0.3-0.2-0.6-0.2-0.8c0-6.3,0-12.6,0-19c0-1,0-1,0.9-1H33
			C33.5,52.4,33.7,52.5,34.2,52.5z M28.5,66.5c-0.2,0.3-0.4,0.6-0.5,0.8c-0.3,0.5-0.6,0.9-0.8,1.4c0.4,0.4,0.9,0.7,1.3,1
			c2.3,1.5,3.5,1.2,4.7-1.3c0.1-0.3,0.2-0.5,0.3-0.8c0.3-0.7,0.1-1.5-0.6-2c-0.7-0.5-1.4-1-2.1-1.4c-0.5-0.3-0.8-0.3-1.1,0.3
			c-1,1.8-0.7,1.5-1,1.3s-0.3-0.3-0.5,0s-0.1,0.2,0,0.3 M67.4,62.4c0-0.2-0.1-0.5-0.2-0.7c-0.6-1.1-1.6-2-2.8-2.5
			c-0.2-0.1-0.4-0.1-0.6-0.1c-1.1,0.2-2,1-2.5,2.1C61,62,61.2,63,61.9,63.6c0.4,0.4,0.8,0.8,1.2,1.1c0.6,0.6,1.5,0.8,2.3,0.4
			C66.5,64.5,67.2,63.5,67.4,62.4L67.4,62.4z M49,69.1c0.1,1.1,0.4,2.1,1,3c0.1,0.2,0.4,0.4,0.6,0.6c1.1,0.4,2.4,0.1,3.3-0.7
			c0.7-0.5,1-1.4,0.6-2.3c-0.1-0.5-0.3-1.1-0.5-1.6c-0.2-1.1-1.3-1.7-2.4-1.5c-0.1,0-0.2,0.1-0.4,0.1c-0.5,0.1-0.9,0.3-1.3,0.5
			C49.3,67.6,48.9,68.4,49,69.1z M44,71.3c0.6,0.4,1.2,1,1.5,1.7c0.4,0.8,1.3,1.1,2.1,0.7l0,0c-0.6-0.8-1.1-1.6-1.8-2.3
			c-0.3-0.3-0.3-0.7-0.1-1l0,0c0.5-0.7,1-1.5,1.3-2.3c-0.7-0.3-1.5,0.1-1.8,0.8V69c-0.2,0.4-0.5,0.8-0.7,1.2
			c-0.1,0.1-0.2,0.2-0.4,0.2s-0.2-0.2-0.2-0.4c0-0.4-0.1-0.9-0.1-1.3s-0.4-0.5-0.7-0.5s-0.7,0-0.6,0.5c0.1,1.6,0.2,3.2,0.3,4.8
			c0,0.7,0.5,0.4,0.8,0.5s0.5-0.2,0.5-0.6C43.9,72.6,43.9,71.9,44,71.3z M39.8,73.7c-0.2-1.9-0.5-3.6-0.7-5.4
			c-0.1-0.7-0.6-0.7-1-0.8s-1-0.2-1.3,0.4c-0.7,1.3-1.5,2.6-2.3,3.9c-0.1,0.2-0.4,0.5-0.1,0.7s0.8,0.4,1.2,0
			c0.1-0.2,0.2-0.3,0.3-0.5c0.3-0.7,0.8-0.5,1.3-0.4s1.2,0,1.2,0.9S38.9,73.7,39.8,73.7L39.8,73.7z M59.4,62.9
			c-1.2,0.6-1.2,0.6-0.9,1.6c0.5,1.3,0.8,2.6,1.1,4l-3-2.7C55.7,65,55.7,65,54.8,66c1.3,1.1,2.6,2.1,3.8,3.3c0.5,0.5,1,0.3,1.5,0
			s0.8-0.7,0.7-1.3C60.3,66.3,59.8,64.6,59.4,62.9z"/>
		<path fill="#595959" d="M44.3,44.4c-0.9,0-1.8,0-2.8,0c-1.5,0-2.8-1-3-2.5c-0.3-1.8-0.3-3.7,0-5.5c0.2-1.4,1.4-2.4,2.8-2.4
			c1.5-0.1,3-0.1,4.6,0s2.8,1.4,2.9,3c0.1,1.5-0.9,2.9-2.4,3.3c-0.9,0.2-1.9,0.2-2.9,0.1c-0.6,0-1.1-0.5-1.1-1.1l0,0
			c0-0.6,0.4-1.1,1-1.2C44,38,44.6,38,45.3,38c0.8-0.1,1.1-0.3,1.1-0.9s-0.5-0.8-1.1-0.8h-3.6c-0.5-0.1-1,0.3-1.1,0.9
			c0,0.1,0,0.2,0,0.2c0,1.2,0,2.5,0,3.7c0,0.7,0.4,1,1,1c1.5,0.1,3,0,4.6,0c0.5,0,1,0,1.4,0.1c0.8,0.1,1.1,0.5,1.1,1.2
			s-0.4,1-1.2,1.1C46.4,44.4,45.3,44.4,44.3,44.4L44.3,44.4z"/>
		<path fill="#595959" d="M72.7,33.9c0.9,0,1.8,0,2.8,0c1.7-0.1,3.2,1.3,3.2,3l0,0c0.1,1.6,0.1,3.1,0,4.7c-0.1,1.6-1.4,2.8-3,2.8
			c-1.4,0-2.9,0-4.3,0c-1.5,0-2.7-1.1-2.9-2.5c-0.3-1.5,0.4-2.9,1.8-3.6c1.1-0.4,2.3-0.5,3.4-0.3c0.6,0.1,1.1,0.6,1,1.2
			c0,0,0,0,0,0.1c0,0.6-0.5,1-1.1,1s-1.2,0-1.8,0s-1,0.2-1.1,0.9s0.4,0.9,1,0.9c1.3,0,2.6,0,3.8,0c0.5,0,0.9-0.3,0.9-0.8
			c0,0,0,0,0-0.1c0.1-1.4,0.1-2.8,0-4.2c0-0.7-0.6-0.8-1.1-0.8c-1.6,0-3.3,0-4.9,0c-0.3,0-0.6,0-0.9,0c-0.6,0-1-0.5-1-1.1V35
			c0-0.6,0.4-1,0.9-1.1h0.1C70.5,33.9,71.6,33.9,72.7,33.9L72.7,33.9z"/>
		<path fill="#595959" d="M63.3,36.3h-2c-0.5,0-1,0-1.4,0c-0.8-0.1-1.3-0.5-1.3-1.2s0.6-1.2,1.2-1.2h0.1c2,0,4.1-0.1,6.1,0
			c1.3,0,1.7,0.9,0.9,2c-0.8,1-1.6,1.9-2.5,2.8c-1,1.1-2,2.2-3.2,3.5c0.5,0.1,0.9,0.2,1.4,0.1c1.3,0,2.6,0,4,0c0.9,0,1.3,0.4,1.3,1
			s-0.4,1.1-1.3,1.2c-0.3,0-0.7,0-1.1,0h-6.2c-0.2,0-0.5,0-0.7,0c-0.5-0.1-1-0.2-1.3-0.8c-0.2-0.5,0-1.1,0.4-1.4
			c1.5-1.7,3.1-3.3,4.6-5C62.9,37,63.3,36.8,63.3,36.3z"/>
		<path fill="#595959" d="M14.2,37.8c0,0.8,0,1.6,0,2.4c0,2.4-2.1,4.4-4.5,4.3H9.6c-2.4,0-4.4-1.9-4.5-4.3l0,0c0-1.5,0-3.1,0-4.7
			c0-0.1,0-0.2,0-0.4c0-0.6,0.5-1,1-1.1s1.1,0.3,1.2,0.8c0,0.1,0,0.1,0,0.2c0.1,0.7,0.1,1.3,0.1,2c0,1,0,2,0,3
			c0,1.2,0.9,2.2,2.2,2.2c1.2,0,2.2-1,2.3-2.2c0.1-1.3,0.1-2.6,0.1-4c0-0.4,0-0.8,0.1-1.2c0-0.5,0.5-1,1.1-0.9
			c0.5-0.1,1,0.3,1.1,0.9v0.1C14.2,35.9,14.2,36.8,14.2,37.8L14.2,37.8z"/>
		<path fill="#595959" d="M24.3,40.2c0,1.3,0,2.2,0,3.1s-0.5,1.2-1.1,1.2s-1-0.4-1.1-1.3c0-1.1,0-2.2,0-3.3c0-0.6,0-1.1-0.2-1.7
			c-0.2-1.2-1.2-2-2.4-1.9c-1.1,0-2,1-2,2.1l0,0c-0.1,1.3,0,2.7,0,4.1c0,0.4,0,0.8-0.1,1.2c-0.1,0.5-0.6,0.9-1.2,0.8
			c-0.5,0-0.9-0.4-1-0.9c-0.1-0.3-0.1-0.6-0.1-1c0-1.4,0-2.9,0-4.3c0.1-2.5,2.2-4.5,4.7-4.5c2,0.1,3.8,1.5,4.3,3.5
			C24.3,38.3,24.4,39.2,24.3,40.2z"/>
		<path fill="#595959" d="M33.1,40.7c0.8-1.8,1.5-3.4,2.2-5c0.2-0.4,0.4-0.8,0.6-1.2c0.3-0.5,1-0.7,1.5-0.4c0.6,0.3,0.6,0.8,0.5,1.3
			c-0.1,0.3-0.2,0.7-0.4,1c-1,2.3-2,4.6-3,6.9c-0.1,0.2-0.2,0.4-0.3,0.5c-0.3,0.6-1.1,0.9-1.7,0.5c-0.2-0.1-0.4-0.3-0.5-0.5
			c-0.2-0.4-0.4-0.8-0.5-1.2l-2.8-6.2c-0.2-0.4-0.3-0.7-0.4-1.1c-0.1-0.5,0.1-1,0.6-1.2c0.5-0.3,1.1-0.1,1.4,0.3
			c0.2,0.3,0.4,0.6,0.5,0.9L33.1,40.7z"/>
		<path fill="#595959" d="M81.9,38.2c0,0.8,0,1.6,0,2.4c0,1.4,0.2,1.5,1.6,1.6c1.1,0,2.2,0,3.3,0c0.6,0,1,0.4,1,1c0,0.1,0,0.2,0,0.3
			c-0.1,0.5-0.3,0.9-0.9,0.9c-1.6,0-3.2,0.1-4.8,0c-1.3-0.2-2.3-1.2-2.5-2.6c-0.1-1.3-0.2-2.6-0.1-3.9c0-1,0-1.9,0-2.9
			c0-0.8,0.5-1.2,1.1-1.2s1.1,0.5,1.2,1.3C81.9,36.2,81.9,37.2,81.9,38.2z"/>
		<path fill="#595959" d="M51.9,40.3c0,0.9,0,1.8,0,2.8s-0.4,1.4-1.2,1.3s-1-0.3-1-1.3c-0.1-2.1-0.1-4.2,0-6.2c0-1.6,1.2-2.9,2.7-3
			s2.9-0.1,4.4,0c0.5-0.1,1.1,0.3,1.1,0.8c0,0.1,0,0.2,0,0.3c0,0.6-0.4,1.1-1,1.1c-0.3,0-0.7,0-1,0c-0.9,0-1.8,0-2.6,0
			c-1.3,0-1.5,0.2-1.5,1.5c0,0.4,0,0.9,0,1.3L51.9,40.3L51.9,40.3z"/>
		<path fill="#595959" d="M27.7,39.3c0,1.4,0,2.7,0,4.1c0,0.9-0.5,1.3-1.3,1.1c-0.5-0.1-0.9-0.5-0.9-1.1c0-2.8,0-5.5,0-8.3
			c-0.1-0.5,0.3-1,0.9-1.1c0.1,0,0.1,0,0.2,0c0.7,0,1.1,0.4,1.1,1.2C27.7,36.6,27.7,38,27.7,39.3L27.7,39.3z"/>
		<path fill="#595959" d="M30.9,65.5c0.5,0.4,1.4,0.5,1.3,1.5c-0.2,1-0.8,1.9-1.6,2.4c-0.6,0.1-1.3-0.1-1.7-0.6
			c-0.1-0.4,0.3-0.7,0.5-1.1s0.3-0.4,0.7-0.3c0.5,0.3,0.5,0.4,0.7,0.1s0.2-0.3-0.4-0.6c-0.3-0.2-0.3-0.4-0.1-0.7
			C30.4,66,30.6,65.7,30.9,65.5z"/>
		<path fill="#595959" d="M66.1,62.8c-0.1,0.7-0.6,1.1-1.3,1.1c-0.1,0-0.2,0-0.4-0.1c-0.7-0.4-1.4-1-1.8-1.7
			c-0.2-0.3-0.2-0.8,0.1-1.1s0.6-0.7,1.1-0.5c0.9,0.4,1.7,1.1,2.2,1.9C66,62.5,66,62.7,66.1,62.8z"/>
		<path fill="#595959" d="M53.3,70.6c0,0.5-0.3,0.9-0.8,1c-0.4,0.2-1,0.1-1.3-0.3c-0.5-0.7-0.8-1.6-0.8-2.5c0-0.6,0.4-0.8,0.9-0.9
			c0.5-0.2,1,0.1,1.2,0.5C52.9,69,53.1,69.8,53.3,70.6z"/>
		<path fill="#595959" d="M38.2,70.8c-0.5,0-1,0-1.4-0.3l1.1-1.9C38.3,69.3,38.1,70.1,38.2,70.8z"/>
	</g>
</g>
</svg>
