<?xml version="1.0" standalone="no"?>
<!DOCTYPE svg PUBLIC "-//W3C//DTD SVG 20010904//EN"
 "http://www.w3.org/TR/2001/REC-SVG-20010904/DTD/svg10.dtd">
<svg version="1.0" xmlns="http://www.w3.org/2000/svg"
 width="200.000000pt" height="200.000000pt" viewBox="0 0 200.000000 200.000000"
 preserveAspectRatio="xMidYMid meet">
<metadata>
Created by potrace 1.11, written by Peter Selinger 2001-2013
</metadata>
<g transform="translate(0.000000,200.000000) scale(0.100000,-0.100000)"
fill="#000000" stroke="none">
<path d="M970 1847 c-3 -3 -27 -8 -54 -11 -92 -13 -212 -62 -305 -125 -142
-96 -277 -287 -313 -442 -11 -47 -13 -49 -47 -50 -196 -2 -202 -3 -226 -31
-19 -22 -22 -37 -22 -105 l0 -80 32 0 32 0 -2 63 c-1 35 2 69 6 76 7 10 186
13 921 14 502 0 921 -3 930 -8 13 -6 17 -21 17 -61 -1 -84 -2 -84 31 -85 l30
-1 0 84 c0 85 -6 102 -48 124 -10 5 -306 9 -665 9 -357 0 -651 2 -654 5 -10
10 50 106 97 155 54 56 132 103 208 126 66 19 198 15 262 -8 59 -22 148 -76
155 -95 4 -9 -14 -34 -47 -68 l-52 -53 229 0 230 0 0 225 c0 124 -2 225 -5
225 -2 0 -28 -23 -56 -51 l-52 -51 -24 22 c-74 70 -213 144 -328 174 -63 17
-270 34 -280 23z"/>
<path d="M888 1112 c-47 -6 -68 -45 -67 -120 1 -53 6 -70 24 -88 20 -20 31
-22 111 -21 84 2 89 3 92 25 4 24 4 24 -94 22 -40 -1 -64 3 -70 12 -9 11 -11
63 -5 108 1 12 108 14 115 2 10 -17 -12 -35 -38 -30 -29 6 -51 -14 -42 -37 9
-23 87 -20 114 5 44 42 15 119 -45 121 -16 0 -37 1 -48 2 -11 1 -32 1 -47 -1z"/>
<path d="M1282 1109 c-19 -7 -23 -30 -7 -41 5 -4 27 -8 48 -8 43 0 46 -8 15
-37 -50 -43 -99 -107 -96 -122 3 -14 20 -16 113 -16 106 0 110 1 113 23 4 23
-5 26 -101 24 -45 -1 -46 -2 40 90 69 74 65 85 -33 90 -41 2 -83 0 -92 -3z"/>
<path d="M1510 1110 c-27 -4 -35 -10 -35 -25 0 -18 8 -20 85 -25 l85 -5 3 -54
c2 -37 -1 -57 -10 -62 -15 -10 -107 -9 -113 1 -9 14 12 29 45 32 27 2 36 8 38
26 3 22 -13 28 -73 23 -33 -3 -68 -49 -60 -80 13 -50 32 -61 110 -61 62 0 74
3 93 23 18 19 22 35 22 93 0 94 -11 107 -91 114 -35 3 -80 3 -99 0z"/>
<path d="M107 1098 c-2 -7 -3 -46 -2 -86 3 -83 24 -117 79 -128 75 -13 119 34
121 130 1 83 -3 98 -29 94 -19 -3 -21 -10 -24 -76 -2 -63 -6 -74 -26 -87 -44
-29 -70 2 -68 80 1 62 -6 85 -27 85 -10 0 -21 -6 -24 -12z"/>
<path d="M363 1092 c-30 -23 -40 -55 -42 -134 -1 -60 1 -67 19 -73 12 -4 24
-4 28 -1 3 3 6 37 7 76 2 72 14 100 46 100 35 0 49 -28 49 -101 0 -54 4 -71
16 -76 23 -9 33 7 35 57 3 94 0 111 -30 141 -35 34 -92 39 -128 11z"/>
<path d="M548 1098 c-2 -7 -4 -58 -4 -113 1 -89 3 -100 20 -103 10 -2 21 1 25
6 4 6 6 57 6 114 0 97 -2 103 -21 106 -12 2 -23 -3 -26 -10z"/>
<path d="M607 1097 c-5 -13 64 -179 85 -204 20 -25 38 -12 64 45 70 152 75
172 36 172 -13 0 -27 -20 -49 -67 l-30 -68 -32 68 c-22 48 -37 67 -50 67 -10
0 -21 -6 -24 -13z"/>
<path d="M1096 1097 c-22 -16 -33 -80 -26 -157 4 -47 8 -55 25 -55 18 0 20 7
21 78 1 43 5 82 10 87 5 5 34 10 64 12 47 3 55 6 55 23 0 18 -8 20 -65 23 -43
2 -71 -2 -84 -11z"/>
<path d="M1719 1096 c0 -9 -1 -41 -1 -71 0 -94 1 -101 22 -122 16 -18 30 -21
87 -20 62 2 68 4 71 25 3 19 -1 22 -30 23 -18 0 -46 2 -63 2 l-30 2 -5 85 c-5
79 -7 85 -27 88 -15 2 -23 -2 -24 -12z"/>
<path d="M5 980 c-2 -4 -4 -40 -3 -81 1 -66 4 -77 29 -101 l27 -28 656 0 c553
0 656 -2 656 -14 0 -20 -74 -127 -112 -162 -164 -149 -427 -158 -593 -20 l-30
25 55 55 c30 31 52 56 50 57 -3 0 -105 1 -228 2 l-222 2 -1 -35 c-1 -40 0
-400 0 -415 1 -5 25 15 55 44 l54 54 59 -46 c85 -66 176 -112 281 -142 85 -25
103 -27 230 -22 151 5 165 7 255 41 142 54 262 144 358 271 44 59 106 185 123
252 l12 48 115 5 c114 5 151 15 163 46 3 8 6 50 6 93 l0 77 -27 -2 c-16 -1
-30 -2 -33 -3 -3 0 -4 -26 -3 -57 5 -99 108 -89 -935 -89 -506 0 -924 4 -928
8 -5 4 -8 37 -9 72 0 36 -2 66 -5 66 -21 6 -51 5 -55 -1z m1423 -426 c33 -23
42 -54 26 -86 -18 -36 -56 -45 -90 -24 -45 30 -49 70 -8 110 20 20 43 20 72 0z
m-129 -118 c22 -90 10 -117 -37 -78 -12 9 -33 25 -47 35 -26 19 -33 37 -14 37
6 0 26 -12 45 -26 37 -29 37 -29 25 34 -12 59 13 57 28 -2z m-601 4 c28 -26
28 -67 0 -97 -27 -29 -51 -29 -89 -2 -28 20 -29 22 -15 44 11 17 12 25 3 34
-8 8 -6 11 10 11 11 0 23 7 27 15 8 21 38 19 64 -5z m476 -62 c20 -29 20 -72
0 -92 -40 -41 -114 -8 -114 50 0 57 83 87 114 42z m-334 10 c10 -82 10 -138 0
-138 -6 0 -14 9 -17 19 -7 26 -43 34 -64 15 -13 -12 -18 -13 -21 -2 -7 18 63
107 85 108 9 0 17 -1 17 -2z m100 -44 l0 -25 32 30 c38 35 55 31 32 -9 -16
-27 -16 -29 4 -55 21 -26 21 -45 2 -45 -5 0 -17 13 -26 29 -20 34 -44 31 -44
-6 0 -15 -5 -23 -12 -21 -14 5 -23 78 -13 115 7 30 25 20 25 -13z"/>
<path d="M1360 525 c-10 -12 -9 -20 4 -40 18 -28 47 -33 66 -10 10 12 9 20 -4
40 -18 28 -47 33 -66 10z"/>
<path d="M652 408 c2 -15 -2 -22 -10 -20 -18 3 -28 -28 -11 -38 30 -19 81 38
58 66 -18 22 -41 17 -37 -8z"/>
<path d="M1100 364 c-21 -24 -1 -69 30 -69 20 0 26 6 28 28 6 48 -31 74 -58
41z"/>
<path d="M797 336 c-3 -8 1 -17 9 -20 9 -4 14 1 14 14 0 23 -15 27 -23 6z"/>
</g>
</svg>
